<?xml version="1.0" standalone="no"?>
<!DOCTYPE svg PUBLIC "-//W3C//DTD SVG 20010904//EN"
 "http://www.w3.org/TR/2001/REC-SVG-20010904/DTD/svg10.dtd">
<svg version="1.0" xmlns="http://www.w3.org/2000/svg"
 width="95.000000pt" height="130.000000pt" viewBox="0 0 95.000000 130.000000"
 preserveAspectRatio="xMidYMid meet">

<g transform="translate(0.000000,130.000000) scale(0.100000,-0.100000)"
fill="#000000" stroke="none">
<path d="M420 1273 c-25 -9 -58 -43 -70 -74 -7 -15 -20 -31 -29 -34 -42 -15
-64 -46 -76 -113 -9 -45 -10 -73 -3 -85 10 -20 82 -56 110 -57 26 0 30 -31 13
-110 -9 -43 -12 -77 -6 -84 20 -26 19 -83 -5 -154 -34 -102 -32 -127 14 -171
20 -20 46 -41 56 -47 18 -9 15 -13 -26 -36 l-46 -25 -6 37 c-7 42 -69 120 -95
120 -25 -1 -65 -36 -56 -50 5 -8 11 -5 19 12 15 30 37 33 67 9 19 -16 22 -22
12 -32 -10 -10 -16 -10 -25 -1 -22 22 -41 14 -34 -14 8 -29 47 -86 54 -79 3 2
-1 11 -8 20 -12 15 -4 21 23 16 5 -1 6 8 2 19 -4 14 -2 20 9 20 24 0 31 -57
10 -88 -10 -15 -26 -43 -35 -62 -20 -43 -43 -64 -93 -85 -30 -13 -41 -14 -50
-4 -8 8 -8 13 2 16 8 3 4 11 -12 24 -14 11 -27 27 -29 37 -3 12 -4 12 -3 -3 0
-11 -9 -34 -22 -52 -21 -29 -21 -32 -6 -76 10 -31 20 -44 29 -41 10 4 9 10 -6
25 -25 25 -24 71 3 95 l21 19 -6 -32 c-5 -25 -3 -33 12 -38 21 -6 98 19 122
41 9 8 20 11 23 6 6 -10 -14 -30 -49 -51 -20 -12 -8 -10 30 5 11 5 13 -2 10
-33 -3 -21 4 -6 14 34 21 85 61 143 96 143 32 0 96 31 92 44 -6 17 21 38 40
31 16 -5 113 -134 113 -149 0 -3 -8 -3 -17 0 -10 2 -8 -1 5 -7 30 -16 36 -7
18 30 -21 39 -20 41 6 41 49 0 139 34 178 67 23 20 42 34 44 32 2 -2 18 -37
36 -77 18 -39 39 -77 47 -84 8 -6 -3 22 -24 63 -21 41 -43 87 -48 103 l-10 28
-36 -35 c-39 -38 -112 -74 -168 -83 -28 -5 -42 -1 -61 16 l-25 21 32 -6 c36
-7 76 2 68 15 -3 5 15 16 40 26 25 9 45 21 45 25 0 5 5 8 12 6 7 -1 12 3 13 8
0 6 13 26 28 45 16 19 24 25 18 13 -6 -12 -16 -25 -21 -28 -6 -3 -10 -11 -10
-17 0 -7 14 1 30 17 17 16 30 37 30 47 0 15 9 18 48 19 l47 1 -37 7 c-45 9
-64 24 -82 65 -25 55 -38 245 -23 324 7 33 15 46 40 58 34 18 60 45 83 87 18
34 7 82 -35 149 -31 48 -63 73 -84 64 -7 -2 -6 -5 4 -5 37 -2 108 -114 109
-172 0 -26 -30 -61 -62 -72 -10 -4 -18 -11 -18 -17 0 -5 -7 -10 -16 -10 -11 0
-14 6 -9 20 5 16 3 19 -12 13 -16 -6 -16 -5 -5 10 28 34 -21 43 -58 11 -8 -7
-28 -18 -44 -23 -27 -11 -28 -11 -22 16 l6 28 -15 -25 c-22 -39 -19 -41 45
-34 53 6 60 4 67 -12 3 -11 10 -22 15 -25 14 -9 -3 -89 -19 -89 -11 0 -11 -5
2 -30 19 -36 16 -36 -38 -8 -56 28 -132 48 -182 47 -33 -1 -36 -2 -15 -8 21
-6 17 -8 -23 -13 -28 -3 -68 -18 -98 -37 -28 -17 -52 -31 -54 -31 -3 0 0 12 6
28 6 15 11 57 12 94 2 67 5 72 40 69 18 -2 24 24 7 34 -5 3 -7 0 -4 -9 4 -10
0 -15 -13 -14 -10 0 -25 -2 -34 -6 -34 -15 -119 85 -119 139 0 26 39 65 66 65
15 0 23 11 33 44 23 78 97 101 169 54 34 -23 40 -24 72 -12 48 17 48 17 73 -9
17 -18 28 -22 52 -16 l30 7 -28 1 c-15 0 -40 10 -55 21 -23 17 -32 18 -68 8
-36 -10 -44 -9 -85 15 -45 26 -69 31 -99 20z m-113 -332 c-14 -5 -57 45 -57
66 0 11 12 2 34 -23 19 -21 29 -41 23 -43z m483 44 c-7 -8 -18 -15 -24 -15 -6
0 -2 7 8 15 25 19 32 19 16 0z m-154 -197 c25 -11 48 -28 51 -37 20 -65 25
-72 42 -58 9 8 22 12 29 10 14 -6 16 -69 2 -78 -17 -10 -11 -33 10 -40 24 -8
27 -62 6 -103 -39 -75 -179 -169 -235 -159 -90 17 -149 45 -178 86 -29 38 -29
59 -1 148 19 59 26 71 41 67 11 -4 17 0 17 10 0 10 -9 16 -21 16 -17 0 -20 4
-15 24 3 14 1 28 -5 31 -13 9 25 51 65 72 25 13 86 27 134 32 7 0 33 -9 58
-21z m167 -325 c-12 -77 -128 -174 -203 -172 -14 0 -19 3 -12 6 6 2 9 9 6 14
-3 6 6 7 23 4 17 -4 23 -3 15 2 -9 7 -3 14 22 25 48 23 102 74 128 119 12 21
23 39 24 39 2 0 0 -17 -3 -37z m-522 -103 c5 0 9 -7 9 -15 0 -22 -28 -18 -41
7 -10 18 -9 20 6 15 9 -4 21 -7 26 -7z m164 -57 c-26 -23 -27 -25 -6 -18 16 5
21 4 17 -4 -8 -12 -84 -37 -91 -29 -13 13 10 36 53 55 61 27 62 27 27 -4z
m-115 -67 c0 -2 -8 -10 -17 -17 -16 -13 -17 -12 -4 4 13 16 21 21 21 13z"/>
<path d="M500 750 c0 -12 70 -31 84 -23 5 4 -6 12 -25 19 -42 16 -59 17 -59 4z"/>
<path d="M400 720 c-8 -5 -11 -12 -7 -16 4 -4 15 0 24 9 18 18 8 23 -17 7z"/>
<path d="M530 660 c-14 -11 -20 -20 -14 -20 6 0 17 6 24 14 6 8 21 17 33 19
20 4 20 4 2 5 -11 1 -31 -7 -45 -18z"/>
<path d="M730 665 c-10 -12 -10 -19 -2 -27 9 -9 12 -9 12 1 0 7 5 9 10 6 12
-7 13 5 1 23 -6 10 -10 10 -21 -3z"/>
<path d="M438 611 c-10 -21 -18 -42 -18 -48 0 -6 8 -17 18 -24 16 -13 16 -12
3 4 -13 16 -13 23 3 52 10 18 17 38 15 43 -2 5 -12 -7 -21 -27z"/>
<path d="M580 640 c-9 -6 -10 -10 -3 -10 6 0 15 5 18 10 8 12 4 12 -15 0z"/>
<path d="M534 566 c11 -9 25 -16 32 -16 7 0 15 -6 18 -12 3 -7 4 -4 3 7 -2 11
-9 19 -15 17 -7 -1 -23 3 -35 8 -21 11 -21 11 -3 -4z"/>
<path d="M516 521 c-5 -8 -19 -11 -37 -7 -16 3 -29 1 -29 -4 0 -15 -37 -12
-43 3 -3 7 -6 6 -6 -5 -1 -25 14 -30 62 -23 52 8 71 18 65 36 -4 11 -6 11 -12
0z"/>
<path d="M475 470 c-16 -7 -17 -9 -3 -9 9 -1 20 4 23 9 7 11 7 11 -20 0z"/>
<path d="M485 420 l-30 -8 32 -1 c17 0 35 4 38 9 7 11 3 11 -40 0z"/>
<path d="M506 1115 c-23 -35 -20 -77 9 -119 13 -20 22 -36 18 -36 -22 0 -74
47 -92 83 -12 23 -19 31 -15 17 9 -39 37 -73 79 -97 47 -26 61 -21 37 15 -12
18 -17 46 -17 94 0 37 -1 68 -1 68 -1 0 -9 -11 -18 -25z"/>
<path d="M541 1115 c-1 -11 13 -69 31 -128 13 -44 30 -44 39 2 9 43 40 111 51
111 4 0 11 0 16 0 4 1 10 -14 13 -32 l6 -33 2 38 c2 54 -24 61 -61 17 -15 -19
-33 -50 -39 -69 l-12 -34 -22 69 c-13 38 -23 65 -24 59z"/>
<path d="M631 993 c-1 -6 -4 -20 -7 -30 -5 -17 -5 -17 6 0 6 10 9 23 6 30 -3
9 -5 9 -5 0z"/>
<path d="M450 949 c0 -5 14 -9 32 -9 36 0 32 10 -6 14 -14 2 -26 -1 -26 -5z"/>
<path d="M707 890 c3 -11 14 -20 24 -20 24 0 24 9 2 26 -25 19 -32 17 -26 -6z"/>
<path d="M748 833 c7 -3 16 -2 19 1 4 3 -2 6 -13 5 -11 0 -14 -3 -6 -6z"/>
<path d="M180 508 c-6 -7 -17 -22 -25 -33 -14 -20 -14 -20 -15 2 0 33 -21 39
-43 12 -15 -19 -18 -33 -13 -66 7 -50 -1 -56 -15 -13 -7 19 -18 30 -30 30 -10
0 -19 -4 -19 -9 0 -5 8 -8 17 -7 10 0 19 -7 21 -17 2 -10 15 -30 29 -45 l25
-27 -8 29 c-16 65 -8 136 15 136 5 0 12 -24 15 -53 4 -29 11 -59 16 -67 7 -11
8 -6 4 15 -5 31 17 98 37 110 16 11 34 -11 22 -27 -14 -19 -24 -48 -15 -48 13
0 33 57 26 74 -7 19 -29 21 -44 4z"/>
<path d="M14 397 c3 -10 6 -25 6 -32 0 -7 15 -35 33 -61 19 -27 36 -56 40 -64
4 -11 6 -9 6 6 1 11 -8 29 -19 39 -10 9 -27 38 -36 64 -10 25 -22 51 -27 56
-7 7 -8 4 -3 -8z"/>
<path d="M129 333 c-12 -14 -12 -16 0 -8 8 4 28 12 45 16 l31 7 -31 1 c-19 1
-37 -6 -45 -16z"/>
<path d="M491 281 c-10 -7 -11 -12 -2 -22 6 -8 21 -26 32 -42 11 -15 30 -32
42 -39 15 -8 12 -1 -10 21 -18 18 -36 45 -40 61 -6 22 -12 27 -22 21z"/>
<path d="M525 270 c4 -14 21 -38 37 -55 l31 -30 -18 31 c-9 17 -26 41 -37 55
l-19 24 6 -25z"/>
<path d="M830 253 c0 -16 -2 -16 -11 -3 -9 12 -10 12 -7 1 7 -24 28 -25 28 -2
0 12 -2 21 -5 21 -3 0 -5 -8 -5 -17z"/>
<path d="M178 245 c5 -11 12 -27 15 -35 5 -13 6 -13 6 1 1 8 -6 24 -15 35 -15
19 -15 19 -6 -1z"/>
<path d="M862 175 c-11 -12 -10 -15 3 -15 8 0 15 7 15 15 0 18 -2 18 -18 0z"/>
<path d="M891 121 c-11 -7 -11 -9 0 -14 10 -4 10 -6 2 -6 -19 -1 -16 -21 2
-21 19 0 31 28 19 40 -5 5 -15 5 -23 1z"/>
</g>
</svg>
